<svg viewBox="0 0 500 500" xmlns="http://www.w3.org/2000/svg">
  <defs>
    <linearGradient gradientUnits="userSpaceOnUse" x1="281.872" y1="137.336" x2="281.872" y2="160.076" id="gradient-0" gradientTransform="matrix(1.343703, 1.343899, -11.252305, 11.250885, 1551.602783, -1817.939515)">
      <stop offset="0" style="stop-color: rgb(184, 197, 209);"></stop>
      <stop offset="1" style="stop-color: rgba(80, 93, 106, 1)"></stop>
    </linearGradient>
    <linearGradient gradientUnits="userSpaceOnUse" x1="298.907" y1="152.836" x2="298.907" y2="202.826" id="gradient-1" gradientTransform="matrix(1.345932, 1.341665, -5.088651, 5.104935, 758.663025, -1075.456727)">
      <stop offset="0" style="stop-color: rgb(184, 197, 209);"></stop>
      <stop offset="1" style="stop-color: rgba(80, 93, 106, 1)"></stop>
    </linearGradient>
    <linearGradient gradientUnits="userSpaceOnUse" x1="272.693" y1="167.016" x2="272.693" y2="212.684" id="gradient-2" gradientTransform="matrix(1.343146, 1.344455, -5.524327, 5.519061, 937.788757, -1180.904114)">
      <stop offset="0" style="stop-color: rgb(184, 197, 209);"></stop>
      <stop offset="1" style="stop-color: rgba(80, 93, 106, 1)"></stop>
    </linearGradient>
    <linearGradient gradientUnits="userSpaceOnUse" x1="310.784" y1="137.336" x2="310.784" y2="173.631" id="gradient-3" gradientTransform="matrix(1.351608, 1.335947, -6.983138, 7.06514, 922.108337, -1280.728943)">
      <stop offset="0" style="stop-color: rgb(184, 197, 209);"></stop>
      <stop offset="1" style="stop-color: rgba(80, 93, 106, 1)"></stop>
    </linearGradient>
    <linearGradient gradientUnits="userSpaceOnUse" x1="372.267" y1="137.576" x2="372.267" y2="194.376" id="gradient-4" gradientTransform="matrix(1.368056, 1.319098, -3.969734, 4.117153, 391.356537, -931.32306)">
      <stop offset="0" style="stop-color: rgb(184, 197, 209);"></stop>
      <stop offset="1" style="stop-color: rgba(80, 93, 106, 1)"></stop>
    </linearGradient>
    <linearGradient gradientUnits="userSpaceOnUse" x1="346.377" y1="177.256" x2="346.377" y2="213.103" id="gradient-5" gradientTransform="matrix(1.339546, 1.348043, -7.161554, 7.116552, 1191.592651, -1623.017396)">
      <stop offset="0" style="stop-color: rgb(184, 197, 209);"></stop>
      <stop offset="1" style="stop-color: rgba(80, 93, 106, 1)"></stop>
    </linearGradient>
    <linearGradient gradientUnits="userSpaceOnUse" x1="411.527" y1="137.576" x2="411.527" y2="172.826" id="gradient-6" gradientTransform="matrix(1.342292, 1.345305, -7.226611, 7.210575, 825.25824, -1440.576478)">
      <stop offset="0" style="stop-color: rgb(184, 197, 209);"></stop>
      <stop offset="1" style="stop-color: rgba(80, 93, 106, 1)"></stop>
    </linearGradient>
    <linearGradient gradientUnits="userSpaceOnUse" x1="420.977" y1="166.75" x2="420.977" y2="191.216" id="gradient-7" gradientTransform="matrix(1.346023, 1.341574, -10.368965, 10.403575, 1545.764038, -2193.443299)">
      <stop offset="0" style="stop-color: rgb(184, 197, 209);"></stop>
      <stop offset="1" style="stop-color: rgba(80, 93, 106, 1)"></stop>
    </linearGradient>
    <linearGradient gradientUnits="userSpaceOnUse" x1="421.007" y1="183.754" x2="421.007" y2="202.826" id="gradient-8" gradientTransform="matrix(1.348505, 1.339079, -13.348466, 13.442708, 2268.801758, -2929.634705)">
      <stop offset="0" style="stop-color: rgb(184, 197, 209);"></stop>
      <stop offset="1" style="stop-color: rgba(80, 93, 106, 1)"></stop>
    </linearGradient>
  </defs>
  <path fill="#ffffff" d="M 245.63 500.796 C 107.58 498.388 -2.374 384.335 0.039 246.055 C 2.453 107.774 116.322 -2.37 254.371 0.039 C 392.421 2.449 502.375 116.5 499.962 254.78 C 497.548 393.061 383.679 503.205 245.63 500.796 Z M 495.059 250.019 C 495.059 114.184 384.943 4.068 249.107 4.068 C 113.272 4.068 3.156 114.184 3.156 250.019 C 3.156 385.853 113.272 495.971 249.107 495.971 C 384.943 495.971 495.059 385.853 495.059 250.019 Z"></path>
  <path d="M 495.059 250.019 C 495.059 385.853 384.943 495.971 249.107 495.971 C 113.272 495.971 3.156 385.853 3.156 250.019 C 3.156 114.184 113.272 4.068 249.107 4.068 C 384.943 4.068 495.059 114.184 495.059 250.019 Z M 484.207 249.981 C 484.207 120.107 378.924 14.825 249.05 14.825 C 119.176 14.825 13.893 120.107 13.893 249.981 C 13.893 379.854 119.176 485.138 249.05 485.138 C 378.924 485.138 484.207 379.854 484.207 249.981 Z" style="fill: rgb(184, 197, 209);"></path>
  <path d="M 232.745 58.04 L 231.776 45.839 C 231.77 45.68 231.701 45.53 231.586 45.421 L 218.036 33.145 C 217.682 32.837 217.794 32.263 218.237 32.111 C 218.283 32.094 218.33 32.084 218.378 32.08 L 225.903 31.453 C 226.069 31.438 226.234 31.493 226.359 31.605 L 235.101 39.245 C 235.348 39.467 235.73 39.452 235.957 39.207 L 243.463 30.978 C 243.562 30.87 243.697 30.803 243.843 30.788 L 251.806 30.047 C 252.272 30.003 252.61 30.48 252.414 30.906 C 252.389 30.959 252.357 31.008 252.319 31.054 L 239.909 45.098 C 239.797 45.222 239.742 45.387 239.757 45.554 L 240.974 61.157 C 240.998 61.611 240.535 61.93 240.118 61.746 L 233.106 58.553 C 232.899 58.462 232.76 58.264 232.745 58.04 Z" style="fill: rgb(244, 250, 255);"></path>
  <path d="M 267.997 52.396 L 287.477 54.904 C 288.113 55.001 288.406 55.75 288.003 56.254 C 287.992 56.265 287.982 56.278 287.971 56.292 C 285.557 58.876 283.106 60.472 279.248 59.959 C 272.634 59.059 265.774 58.154 258.666 57.242 C 258.045 57.166 257.773 56.816 257.849 56.197 L 260.966 31.586 C 261.055 30.813 261.492 30.476 262.277 30.579 L 291.391 34.209 C 292.176 34.309 292.323 34.676 291.829 35.311 C 286.26 42.457 277.328 38.162 269.556 37.706 C 269.018 37.675 268.535 38.044 268.416 38.58 L 267.902 40.803 C 267.712 41.588 268.022 42.038 268.834 42.152 L 285.956 44.49 C 286.754 44.604 286.907 44.976 286.412 45.611 C 281.832 51.502 274.364 48.329 268.301 47.664 C 267.555 47.588 267.104 47.911 266.952 48.633 L 266.591 50.4 C 266.382 51.349 267.034 52.272 267.997 52.396 Z" style="fill: rgb(244, 250, 255);"></path>
  <path d="M 178.963 54.543 L 182.593 68.055 C 182.747 68.618 182.58 69.222 182.156 69.632 L 177.386 74.421 C 176.612 75.193 176.075 75.049 175.77 73.984 L 168.074 46.333 C 167.884 45.661 168.125 45.218 168.796 45.003 L 175.219 43.046 C 175.97 42.806 176.793 42.956 177.424 43.445 L 191.297 54.163 C 191.808 54.545 192.544 54.325 192.76 53.726 L 198.518 37.648 C 198.771 36.926 199.265 36.451 200.001 36.223 L 206.671 34.114 C 207.445 33.872 207.944 34.144 208.172 34.931 L 214.976 58.819 C 215.153 59.45 214.752 60.102 214.102 60.244 L 208.268 61.556 C 207.73 61.685 207.182 61.358 207.032 60.815 L 203.326 47.208 C 203.195 46.761 202.637 46.607 202.319 46.932 C 202.26 46.993 202.215 47.067 202.186 47.151 L 197.378 59.655 C 196.236 62.627 192.534 63.635 190.043 61.651 L 180.141 53.783 C 178.963 52.844 178.57 53.099 178.963 54.543 Z" style="fill: rgb(244, 250, 255);"></path>
  <path d="M 318.32 61.024 L 304.238 55.778 C 303.571 55.531 302.834 55.906 302.623 56.596 L 300.818 62.582 C 300.607 63.264 299.894 63.659 299.202 63.475 L 293.653 62.088 C 292.893 61.898 292.632 61.423 292.874 60.662 L 300.742 36.774 C 300.945 36.191 301.336 36.001 301.92 36.204 L 326.929 44.718 C 327.537 44.933 327.942 45.345 328.145 45.953 L 330.73 54.144 C 330.876 54.612 330.682 55.125 330.255 55.398 L 325.162 58.629 C 324.556 59.015 324.432 59.851 324.896 60.415 C 329.058 65.471 325.485 70.602 324.212 75.866 C 324.079 76.39 323.427 76.573 323.039 76.195 C 323.03 76.187 323.022 76.177 323.014 76.17 L 318.168 70.735 C 317.712 70.227 317.579 69.644 317.769 68.986 L 319.385 63.133 C 319.675 62.093 319.322 61.39 318.32 61.024 Z M 322.336 51.645 C 322.695 50.537 322.089 49.347 320.981 48.988 L 308.871 45.052 C 307.764 44.693 306.574 45.3 306.213 46.407 L 305.791 47.709 C 305.432 48.817 306.038 50.007 307.146 50.366 L 319.255 54.302 C 320.363 54.661 321.553 54.055 321.912 52.947 L 322.336 51.645 Z" style="fill: rgb(244, 250, 255);"></path>
  <path d="M 356.538 79.914 C 357.322 78.532 356.88 77.373 355.207 76.436 C 350.051 73.547 344.907 70.55 339.776 67.447 C 339.143 67.054 338.788 66.489 338.712 65.756 L 337.933 58.173 C 337.874 57.58 338.202 57.016 338.75 56.767 L 346.237 53.346 C 346.821 53.082 347.495 53.118 348.043 53.441 L 372.615 67.599 C 373.122 67.89 373.134 68.2 372.653 68.53 C 365.546 73.528 355.53 64.482 348.955 61.1 C 347.858 60.533 346.509 61.044 346.047 62.202 C 345.515 63.557 345.92 64.621 347.264 65.394 C 352.522 68.422 357.767 71.463 362.999 74.516 C 363.619 74.874 364.023 75.512 364.082 76.227 L 364.766 83.828 C 364.818 84.486 364.544 84.955 363.949 85.235 L 356.728 88.561 C 356.106 88.838 355.492 88.813 354.884 88.484 L 330.217 74.459 C 329.356 73.977 329.367 73.521 330.255 73.091 C 333.067 71.723 335.937 70.811 338.921 72.502 C 343.773 75.225 348.581 77.981 353.345 80.769 C 354.468 81.417 355.903 81.033 356.538 79.914 Z" style="fill: rgb(244, 250, 255);"></path>
  <path d="M 141.696 76.227 L 146.637 77.044 C 146.818 77.067 146.983 77.164 147.093 77.31 L 153.764 86.432 C 154.073 86.858 153.804 87.458 153.281 87.513 C 153.277 87.513 153.273 87.513 153.27 87.515 L 145.668 88.237 C 145.446 88.262 145.225 88.177 145.079 88.009 L 139.891 81.947 C 139.661 81.679 139.265 81.63 138.979 81.833 L 125.524 90.936 C 125.202 91.151 125.125 91.592 125.353 91.905 L 129.895 98.025 C 130.123 98.336 130.045 98.777 129.724 98.994 L 124.022 102.852 C 123.716 103.053 123.306 102.977 123.091 102.681 L 108.515 81.681 C 108.287 81.367 108.365 80.927 108.686 80.712 L 130.978 65.185 C 131.156 65.066 131.383 65.037 131.586 65.109 L 140.651 68.131 C 140.932 68.22 141.124 68.481 141.126 68.777 L 141.126 75.543 C 141.12 75.879 141.364 76.17 141.696 76.227 Z M 133.669 73.743 C 132.905 72.637 131.388 72.363 130.284 73.127 L 120.254 80.073 C 119.15 80.837 118.874 82.354 119.638 83.458 L 120.115 84.144 C 120.879 85.25 122.394 85.526 123.5 84.76 L 133.53 77.814 C 134.634 77.05 134.91 75.535 134.146 74.429 L 133.669 73.743 Z" style="fill: rgb(244, 250, 255);"></path>
  <path d="M 318.415 85.406 C 318.847 85.565 318.976 86.113 318.662 86.451 L 313.246 92.418 C 312.866 92.836 312.41 92.962 311.878 92.798 C 304.941 90.651 297.416 87.99 291.03 86.47 C 247.308 76.056 205.829 81.388 166.592 102.472 C 164.387 103.661 161.447 104.706 157.774 105.607 C 144.984 108.781 141.259 119.385 132.593 127.747 C 117.618 142.139 105.588 158.716 96.504 177.481 C 96.225 178.051 95.769 178.342 95.136 178.355 L 89.112 178.393 C 87.702 178.401 86.584 179.579 86.66 180.977 C 87.192 191.544 87.23 199.64 84.798 210.415 C 78.717 237.501 78.863 264.563 85.235 291.6 C 87.743 302.262 87.515 311.536 87.42 321.969 C 87.441 322.583 86.791 322.989 86.248 322.701 C 86.081 322.611 85.951 322.467 85.881 322.292 C 47.531 234.417 83.715 134.493 168.397 91.05 C 215.66 66.801 268.777 65.528 318.415 85.406 Z" style="fill: rgb(184, 197, 209);"></path>
  <path d="M 98.177 115.85 L 99.545 117.656 C 100.09 118.365 100.672 118.403 101.293 117.77 L 115.375 103.536 C 115.921 102.99 116.301 103.085 116.516 103.821 C 117.428 106.88 117.352 109.712 114.995 112.259 C 110.155 117.515 105.157 122.622 100.001 127.576 C 99.444 128.119 98.88 128.119 98.31 127.576 L 80.655 110.643 C 80.071 110.085 80.066 109.514 80.636 108.933 L 101.122 87.819 C 101.82 87.097 102.173 87.236 102.187 88.237 L 102.301 94.642 C 102.314 94.921 102.211 95.195 102.016 95.402 L 90.822 107.185 C 90.239 107.793 90.265 108.368 90.898 108.914 L 92.761 110.529 C 93.293 110.985 93.8 110.959 94.281 110.453 L 106.044 98.082 C 106.453 97.643 107.183 97.81 107.359 98.384 C 107.384 98.464 107.396 98.547 107.394 98.633 L 107.394 103.859 C 107.394 104.37 107.196 104.866 106.843 105.246 L 98.253 114.235 C 97.837 114.682 97.804 115.364 98.177 115.85 Z" style="fill: rgb(244, 250, 255);"></path>
  <path d="M 392.189 111.689 L 404.865 125.676 C 405.448 126.308 405.315 126.726 404.466 126.93 C 396.408 128.754 386.108 114.292 381.357 108.686 C 380.888 108.14 380.92 107.627 381.452 107.147 L 399.772 90.575 C 400.342 90.068 400.88 90.092 401.387 90.651 L 421.285 112.43 C 421.695 112.882 421.478 113.612 420.893 113.741 C 420.828 113.756 420.762 113.762 420.695 113.76 C 411.745 113.589 408.191 107.641 403.022 101.274 C 402.51 100.636 401.646 100.385 400.855 100.647 C 399.69 101.052 399.093 101.806 399.069 102.909 C 399.055 103.593 399.392 104.302 400.076 105.037 C 403.673 108.901 407.222 112.821 410.718 116.801 C 411.1 117.242 410.861 117.933 410.287 118.043 C 410.217 118.057 410.144 118.061 410.072 118.055 L 404.542 117.39 C 404.025 117.327 403.548 117.086 403.193 116.706 L 395.572 108.439 C 395.065 107.893 394.437 107.595 393.691 107.546 C 392.309 107.47 391.613 108.336 391.6 110.149 C 391.6 110.744 391.796 111.257 392.189 111.689 Z" style="fill: rgb(244, 250, 255);"></path>
  <path d="M 319.613 95.326 C 325.789 91.297 341.391 90.442 340.08 102.262 C 339.846 104.397 337.551 105.643 335.633 104.676 L 319.67 96.656 C 319.147 96.394 319.115 95.657 319.613 95.326 Z" style="fill: rgb(184, 197, 209);"></path>
  <path d="M 401.52 177.443 C 390.175 153.707 375.048 135.33 354.789 118.682 C 354.301 118.283 354.118 117.62 354.333 117.029 L 357.108 109.351 C 357.336 108.724 358.102 108.502 358.609 108.914 C 381.819 127.473 399.677 150.24 412.182 177.215 C 412.431 177.754 412.035 178.372 411.44 178.374 L 403.003 178.374 C 402.318 178.374 401.824 178.062 401.52 177.443 Z" style="fill: rgb(184, 197, 209);"></path>
  <path d="M 79.268 147.606 L 85.9 137.363 C 86.369 136.641 86.293 135.981 85.672 135.387 L 84.285 134.056 C 83.601 133.41 83.025 133.498 82.555 134.322 C 80.718 137.603 77.886 139.13 74.06 138.902 C 73.224 138.851 73.04 138.477 73.509 137.781 L 82.232 124.706 C 82.561 124.199 83.011 124.047 83.582 124.25 C 89.79 126.441 92.869 130.85 92.818 137.477 C 92.804 137.91 92.673 138.332 92.437 138.693 L 83.22 152.661 C 82.854 153.199 82.306 153.585 81.681 153.745 C 72.749 156.101 68.986 152.642 62.373 147.302 C 61.854 146.884 61.537 146.344 61.423 145.687 L 60.321 139.377 C 60.197 138.695 60.347 137.992 60.739 137.42 L 73.3 118.625 C 73.794 117.89 74.237 117.922 74.631 118.72 C 78.203 125.885 70.678 133.543 66.782 139.263 C 66.339 139.91 66.446 140.453 67.105 140.898 L 77.785 147.929 C 78.276 148.251 78.939 148.104 79.268 147.606 Z" style="fill: rgb(244, 250, 255);"></path>
  <path d="M 414.196 138.636 L 424.629 155.227 C 424.947 155.732 424.814 156.05 424.23 156.177 C 420.809 156.949 418.478 156.398 417.237 154.524 C 412.966 148.024 408.786 141.449 404.694 134.798 C 404.339 134.227 404.447 133.764 405.017 133.41 C 410.884 129.672 416.743 125.928 422.596 122.179 C 427.138 119.252 430.331 119.841 433.941 123.433 C 434.449 123.939 434.397 124.383 433.789 124.763 L 414.595 136.869 C 413.873 137.325 413.74 137.914 414.196 138.636 Z" style="fill: rgb(244, 250, 255);"></path>
  <path d="M 452.071 156.291 L 424.99 169.043 C 424.702 169.176 424.359 169.047 424.23 168.758 L 421.418 162.467 C 421.281 162.182 421.4 161.842 421.684 161.707 L 445.287 150.438 C 445.483 150.337 445.72 150.358 445.895 150.495 L 452.185 155.322 C 452.524 155.584 452.461 156.113 452.071 156.291 Z" style="fill: rgb(244, 250, 255);"></path>
  <path d="M 67.983 185.405 C 65.908 190.466 60.125 192.885 55.066 190.81 L 48.278 188.026 C 43.219 185.951 40.8 180.168 42.875 175.109 L 48.629 161.078 C 50.704 156.017 56.487 153.598 61.546 155.674 L 68.335 158.458 C 73.393 160.533 75.813 166.316 73.737 171.375 L 67.983 185.405 Z M 68.27 168.718 C 68.509 168.148 68.241 167.49 67.671 167.251 L 56.107 162.39 C 55.537 162.15 54.88 162.418 54.64 162.988 L 48.38 177.88 C 48.141 178.45 48.409 179.107 48.979 179.349 L 60.541 184.208 C 61.113 184.448 61.771 184.18 62.01 183.61 L 68.27 168.718 Z" style="fill: rgb(244, 250, 255);"></path>
  <path d="M 452.774 187.306 L 430.806 194.28 C 429.855 194.596 429.481 194.261 429.684 193.273 L 431.091 186.812 C 431.233 186.185 431.687 185.679 432.288 185.481 L 450.418 179.419 C 450.99 179.237 451.246 178.566 450.95 178.032 C 448.542 173.623 448.854 169.524 451.881 165.736 C 452.476 164.987 452.926 165.071 453.23 165.983 L 463.284 196.447 C 463.525 197.194 463.265 197.484 462.504 197.321 C 457.626 196.257 454.878 193.235 454.257 188.256 C 454.143 187.331 453.649 187.013 452.774 187.306 Z" style="fill: rgb(244, 250, 255);"></path>
  <path d="M 412.771 310.167 C 413.094 301.293 412.847 292.76 414.538 283.961 C 418.947 261.257 418.972 238.571 414.614 215.907 C 412.391 204.277 412.429 193.995 411.878 182.669 C 411.838 181.835 412.716 181.272 413.457 181.656 C 413.578 181.719 413.689 181.804 413.778 181.909 C 414.525 182.794 415.179 183.999 415.735 185.519 C 475.959 351.653 296.066 492.455 148.557 397.7 C 148 397.332 147.663 396.819 147.549 396.161 L 145.497 384.454 C 145.37 383.694 145.649 383.485 146.333 383.827 C 148.158 384.721 149.545 386.754 151.027 387.78 C 196.922 419.251 253.592 428.05 306.082 408.894 C 352.604 391.904 385.956 359.812 406.138 312.619 C 406.404 312.011 406.874 311.674 407.545 311.612 L 411.706 311.289 C 412.292 311.232 412.744 310.753 412.771 310.167 Z" style="fill: rgb(184, 197, 209);"></path>
  <path d="M 137.914 182.669 C 137.103 183.644 137.414 185.126 138.846 187.116 C 141.069 190.232 148.69 193.026 152.243 195.991 C 155.379 198.613 158.439 199.602 161.993 201.16 C 162.576 201.426 163.176 201.464 163.798 201.274 C 164.9 200.943 165.598 201.413 165.888 202.68 C 166.255 204.239 166.7 205.778 167.219 207.298 L 122.483 207.013 C 121.748 207.013 121.375 207.38 121.362 208.115 L 121.248 225.884 L 91.373 212.125 L 91.278 183.714 C 91.278 183.136 91.746 182.669 92.323 182.669 L 137.914 182.669 Z" style="fill: url(#gradient-0);"></path>
  <path d="M 137.914 182.669 L 205.398 182.669 C 206.24 182.669 207.019 183.083 207.469 183.771 L 230.483 218.758 C 231.048 219.607 231.055 220.711 230.502 221.57 L 211.821 249.943 C 209.668 252.262 206.487 252.211 202.281 249.791 C 196.555 246.485 192.127 243.064 188.997 239.529 C 193.621 235.056 197.555 229.539 200.799 222.977 C 201.065 222.444 201.027 221.931 200.685 221.437 L 191.392 207.83 C 190.998 207.272 190.466 207 189.796 207.013 L 167.219 207.298 C 166.7 205.778 166.255 204.239 165.888 202.68 C 165.598 201.413 164.9 200.943 163.798 201.274 C 163.176 201.464 162.576 201.426 161.993 201.16 C 158.439 199.602 155.379 198.613 152.243 195.991 C 148.69 193.026 141.069 190.232 138.846 187.116 C 137.414 185.126 137.103 183.644 137.914 182.669 Z" style="fill: url(#gradient-3);"></path>
  <path d="M 343.216 229.077 C 350.69 230.331 358.064 233.853 365.336 239.643 L 333.182 289.833 C 332.649 290.656 331.895 291.068 330.92 291.068 L 313.455 290.935 C 312.822 290.922 312.328 290.65 311.973 290.118 L 267.37 220.791 C 267.192 220.5 266.768 220.529 266.606 220.841 C 266.574 220.901 266.555 220.968 266.553 221.038 L 266.534 271.988 L 237.135 258.533 L 236.736 184.018 C 236.736 183.421 237.026 183.125 237.61 183.125 L 270.81 183.125 C 271.608 183.125 272.216 183.454 272.634 184.113 L 321.893 260.244 C 322.216 260.736 322.938 260.736 323.261 260.244 L 343.216 229.077 Z" style="fill: url(#gradient-4);"></path>
  <path d="M 408.077 250.114 C 407.849 250.088 407.683 249.898 407.583 249.544 C 407.507 249.252 407.36 249.214 407.146 249.43 C 407.007 249.569 406.86 249.715 406.708 249.867 C 406.518 250.057 406.304 250.095 406.062 249.981 C 402.514 248.396 398.993 246.794 395.496 245.173 C 389.833 242.551 386.868 237.8 378.601 238.674 L 378.107 226.131 C 378.083 225.523 378.197 224.94 378.449 224.383 C 378.892 223.406 378.805 222.456 378.183 221.532 C 377.828 221.012 377.48 221.012 377.138 221.532 L 365.336 239.643 C 358.064 233.853 350.69 230.331 343.216 229.077 L 371.931 183.98 C 372.298 183.41 372.818 183.125 373.489 183.125 L 407.127 183.125 C 407.619 183.125 408.02 183.524 408.02 184.018 L 408.077 250.114 Z" style="fill: url(#gradient-6);"></path>
  <path d="M 50.837 222.387 C 57.299 221.905 60.549 224.953 60.587 231.528 C 60.6 232.085 60.326 232.313 59.769 232.213 L 31.263 226.492 C 30.63 226.365 30.376 225.979 30.503 225.333 L 35.653 199.64 C 35.773 199.043 36.168 198.541 36.717 198.29 L 44.376 194.736 C 45.022 194.432 45.579 194.546 46.048 195.079 L 49.868 199.335 C 50.452 199.982 51.052 200.006 51.674 199.411 C 54.842 196.42 58.515 195.991 62.696 198.119 C 63.253 198.397 63.47 198.847 63.342 199.468 L 62.183 204.752 C 62.056 205.322 61.702 205.58 61.119 205.531 L 54.695 204.98 C 53.808 204.902 53.002 205.497 52.814 206.367 L 49.621 221 C 49.406 222 49.811 222.463 50.837 222.387 Z M 46.472 205.945 C 46.695 204.866 45.999 203.811 44.92 203.589 L 43.318 203.26 C 42.238 203.037 41.183 203.733 40.963 204.812 L 38.325 217.657 C 38.105 218.739 38.8 219.793 39.88 220.014 L 41.48 220.343 C 42.559 220.565 43.614 219.869 43.836 218.79 L 46.472 205.945 Z" style="fill: rgb(244, 250, 255);"></path>
  <path d="M 459.635 215.033 C 458.405 214.74 457.455 214.995 456.784 215.793 C 456.328 216.312 456.157 217.085 456.271 218.112 C 456.841 223.229 457.577 228.366 458.476 233.524 C 458.565 234.086 458.027 234.541 457.506 234.341 C 457.506 234.341 457.506 234.341 457.506 234.341 C 450.247 231.642 451.653 223.775 450.627 217.427 C 450.524 216.825 450.011 216.384 449.411 216.382 L 447.206 216.382 C 446.499 216.386 445.956 217.009 446.047 217.712 L 448.384 237.819 C 448.498 238.693 448.17 238.921 447.396 238.503 C 439.205 234.094 439.966 218.72 438.996 210.415 C 438.907 209.717 439.219 209.324 439.928 209.237 L 464.652 206.025 C 465.273 205.949 465.627 206.221 465.716 206.842 L 469.479 236.279 C 469.568 237.04 469.276 237.241 468.605 236.888 C 460.756 232.726 461.991 223.851 460.718 216.192 C 460.617 215.557 460.256 215.172 459.635 215.033 Z" style="fill: rgb(244, 250, 255);"></path>
  <path d="M 91.373 212.125 L 121.248 225.884 L 121.704 238.199 C 121.729 238.87 122.078 239.206 122.749 239.206 L 188.997 239.529 C 192.127 243.064 196.555 246.485 202.281 249.791 C 206.487 252.211 209.668 252.262 211.821 249.943 L 231.243 272.197 C 231.648 272.661 231.871 273.261 231.871 273.889 L 231.871 306.196 C 231.871 306.828 231.548 307.138 230.901 307.127 L 204.391 306.709 C 202.756 306.671 201.939 305.84 201.939 304.219 L 201.939 277.48 C 201.939 276.868 201.707 276.283 201.293 275.846 L 190.841 264.558 C 190.423 264.113 189.91 263.892 189.301 263.892 L 131.453 263.873 C 132.2 263.784 131.909 262.891 130.579 261.194 C 127.063 256.69 115.508 251.464 106.881 246.751 C 99.241 242.595 94.199 240.035 91.753 239.073 L 91.373 212.125 Z" style="fill: url(#gradient-1);"></path>
  <path d="M 408.077 250.114 L 408.609 285.063 C 399.221 281.021 392.879 277.619 389.586 274.858 C 385.988 271.829 382.364 270.531 378.715 270.962 L 378.601 238.674 C 386.868 237.8 389.833 242.551 395.496 245.173 C 398.993 246.794 402.514 248.396 406.062 249.981 C 406.304 250.095 406.518 250.057 406.708 249.867 C 406.86 249.715 407.007 249.569 407.146 249.43 C 407.36 249.214 407.507 249.252 407.583 249.544 C 407.683 249.898 407.849 250.088 408.077 250.114 Z" style="fill: url(#gradient-7);"></path>
  <path d="M 131.453 263.873 L 122.768 263.968 C 122.046 263.98 121.679 264.349 121.666 265.071 L 121.4 307.07 C 121.386 307.879 121.033 308.506 120.336 308.951 L 94.224 325.352 C 92.679 326.327 91.905 325.903 91.905 324.078 L 91.753 239.073 C 94.199 240.035 99.241 242.595 106.881 246.751 C 115.508 251.464 127.063 256.69 130.579 261.194 C 131.909 262.891 132.2 263.784 131.453 263.873 Z" style="fill: url(#gradient-2);"></path>
  <path d="M 237.135 258.533 L 266.534 271.988 L 266.534 307.241 C 266.534 308.001 266.217 308.59 265.584 309.008 L 238.313 326.397 C 237.54 326.891 237.154 326.682 237.154 325.77 L 237.135 258.533 Z" style="fill: url(#gradient-5);"></path>
  <path d="M 48.424 303.174 L 45.801 306.31 C 45.406 306.773 44.758 306.929 44.205 306.69 L 36.204 303.174 C 35.621 302.919 35.267 302.482 35.14 301.863 L 29.952 275.333 C 29.8 274.559 30.11 274.098 30.883 273.946 L 55.512 269.043 C 56.183 268.915 56.596 269.187 56.748 269.86 C 58.281 276.979 59.807 284.023 61.328 290.992 C 62.683 297.161 60.663 301.583 55.265 304.257 C 54.733 304.523 54.196 304.523 53.65 304.257 L 50.571 302.718 C 49.735 302.311 49.019 302.463 48.424 303.174 Z M 52.44 280.228 C 52.232 279.179 51.212 278.497 50.163 278.704 L 49.566 278.822 C 48.515 279.031 47.833 280.05 48.04 281.101 L 50.602 294.039 C 50.811 295.088 51.829 295.772 52.88 295.563 L 53.477 295.445 C 54.528 295.238 55.21 294.217 55.001 293.166 L 52.44 280.228 Z M 42.299 282.068 C 42.101 281.07 41.132 280.42 40.132 280.618 L 39.313 280.779 C 38.314 280.979 37.664 281.948 37.861 282.946 L 40.41 295.81 C 40.608 296.808 41.577 297.457 42.576 297.26 L 43.395 297.098 C 44.395 296.901 45.043 295.93 44.845 294.932 L 42.299 282.068 Z" style="fill: rgb(244, 250, 255);"></path>
  <path d="M 408.609 285.063 L 408.571 306.196 C 408.571 306.815 408.261 307.127 407.64 307.127 C 404.584 307.499 378.514 307.265 379.647 307.127 C 379.025 307.127 378.715 306.809 378.715 306.177 L 378.715 270.962 C 382.364 270.531 385.988 271.829 389.586 274.858 C 392.879 277.619 399.221 281.021 408.609 285.063 Z" style="fill: url(#gradient-8);"></path>
  <path d="M 460.68 290.289 C 452.736 288.047 438.502 289.073 438.844 277.803 C 438.869 277.182 439.186 276.941 439.795 277.081 C 445.851 278.412 451.906 279.742 457.963 281.072 C 471.874 284.113 466.932 295.325 464.994 304.637 C 461.858 319.574 445.724 312.733 436.526 310.281 C 435.893 310.116 435.652 309.717 435.804 309.084 L 437.134 303.345 C 437.273 302.737 437.883 302.357 438.502 302.49 L 457.183 306.519 C 457.805 306.657 458.185 306.416 458.324 305.796 L 461.478 291.638 C 461.63 290.941 461.364 290.491 460.68 290.289 Z" style="fill: rgb(244, 250, 255);"></path>
  <path d="M 50.096 322.387 L 42.666 325.409 C 42.367 325.525 42.029 325.382 41.906 325.086 L 39.34 318.491 C 39.222 318.191 39.367 317.853 39.663 317.731 L 63.76 307.64 C 64.059 307.507 64.408 307.644 64.539 307.944 L 75.296 333.428 C 75.362 333.596 75.349 333.784 75.258 333.942 L 70.374 342.284 C 70.248 342.503 69.996 342.619 69.747 342.569 L 62.449 341.125 C 62.141 341.064 61.839 341.256 61.765 341.562 L 60.359 346.56 C 60.307 346.731 60.182 346.872 60.016 346.94 L 48.937 351.539 C 48.515 351.707 48.07 351.355 48.137 350.905 C 48.137 350.901 48.139 350.897 48.139 350.893 L 49.545 342.702 C 49.579 342.509 49.707 342.343 49.887 342.265 L 57.071 339.073 C 57.36 338.942 57.495 338.605 57.375 338.313 L 50.856 322.691 C 50.725 322.4 50.391 322.265 50.096 322.387 Z M 62.491 319.058 C 62.086 318.088 60.972 317.632 60.005 318.037 L 58.181 318.801 C 57.213 319.206 56.757 320.319 57.162 321.287 L 62.369 333.734 C 62.774 334.704 63.888 335.16 64.855 334.755 L 66.677 333.991 C 67.647 333.586 68.103 332.473 67.698 331.505 L 62.491 319.058 Z" style="fill: rgb(244, 250, 255);"></path>
  <path d="M 435.253 315.108 C 440.004 320.183 432.345 333.752 429.589 338.883 C 428.977 340.013 429.23 341.422 430.197 342.284 C 431.11 343.083 432.092 342.98 433.143 341.98 C 435.975 339.263 439.776 328.05 441.733 323.926 C 442.045 323.269 442.649 322.796 443.367 322.653 L 450.551 321.228 C 451.514 321.024 452.237 321.361 452.717 322.235 L 456.556 329.381 C 456.798 329.823 456.818 330.357 456.613 330.825 L 444.85 357.507 C 444.643 357.989 443.989 358.069 443.673 357.647 C 443.632 357.592 443.599 357.531 443.576 357.469 L 441.372 351.881 C 441.119 351.235 441.131 350.595 441.41 349.962 L 449.107 332.326 C 449.337 331.767 449.234 331.133 448.841 330.692 C 447.029 328.689 445.711 328.645 444.888 330.559 C 442.303 336.538 439.61 342.474 436.811 348.366 C 436.532 348.961 436.064 349.316 435.405 349.43 L 427.404 350.855 C 426.845 350.958 426.281 350.69 425.998 350.19 L 421.855 342.873 C 421.629 342.465 421.608 341.973 421.798 341.543 L 433.485 315.394 C 433.928 314.405 434.517 314.31 435.253 315.108 Z" style="fill: rgb(244, 250, 255);"></path>
  <path d="M 97.017 328.924 C 97.958 328.267 99.266 328.577 99.83 329.59 C 107.445 343.322 116.654 355.891 127.462 367.294 C 127.903 367.759 128.101 368.407 127.994 369.042 C 127.171 373.704 127.874 378.05 130.104 382.079 C 130.271 382.436 129.99 382.841 129.596 382.809 C 129.49 382.799 129.387 382.756 129.305 382.687 C 114.42 368.445 101.888 352.395 91.715 334.531 C 91.263 333.733 91.502 332.718 92.266 332.193 L 97.017 328.924 Z" style="fill: rgb(184, 197, 209);"></path>
  <path d="M 419.479 346.028 C 419.808 345.545 420.101 345.559 420.353 346.066 C 422.786 350.69 422.172 354.694 418.51 358.077 C 417.759 358.782 417.851 360 418.7 360.585 L 437.837 373.622 C 438.521 374.09 438.497 374.515 437.761 374.895 L 431.585 378.088 C 430.863 378.455 430.165 378.411 429.494 377.955 L 413.683 367.085 C 413.042 366.655 412.17 366.933 411.897 367.655 C 410.173 372.292 406.765 374.565 401.672 374.477 C 400.747 374.464 400.545 374.078 401.064 373.318 L 419.479 346.028 Z" style="fill: rgb(244, 250, 255);"></path>
  <path d="M 76.056 373.052 L 68.207 361.555 C 67.696 360.794 66.662 360.591 65.889 361.098 L 61.841 363.759 C 61.17 364.215 60.6 364.107 60.13 363.436 L 56.938 358.78 C 56.457 358.082 56.563 357.493 57.261 357.013 L 70.811 347.682 C 75.13 344.685 81.06 345.726 84.114 350.019 C 88.029 355.492 99.393 368.719 90.195 374.933 C 84.152 379.038 78.095 383.079 72.027 387.058 C 71.178 387.615 70.721 387.387 70.659 386.374 L 70.222 379.456 C 70.163 378.683 70.543 377.936 71.21 377.518 L 75.733 374.686 C 76.404 374.255 76.512 373.71 76.056 373.052 Z M 78.986 353.719 C 78.635 353.21 77.937 353.081 77.428 353.432 L 73.392 356.216 C 72.882 356.568 72.753 357.267 73.105 357.777 L 81.219 369.54 C 81.571 370.049 82.27 370.179 82.78 369.827 L 86.816 367.043 C 87.325 366.691 87.455 365.992 87.101 365.483 L 78.986 353.719 Z" style="fill: rgb(244, 250, 255);"></path>
  <path d="M 95.421 399.069 L 105.36 409.502 C 105.778 409.931 105.697 410.243 105.113 410.433 C 101.293 411.649 98.652 411.326 95.706 408.305 C 90.702 403.16 85.754 397.985 80.864 392.778 C 80.231 392.106 80.376 391.744 81.301 391.695 L 106.044 390.422 C 106.772 390.372 107.187 389.567 106.789 388.968 C 106.751 388.909 106.704 388.854 106.653 388.806 C 102.396 384.721 97.569 381.3 99.735 374.021 C 99.9 373.476 100.178 373.405 100.571 373.812 L 121.191 395.154 C 122.116 396.104 121.913 396.604 120.583 396.655 L 96.01 397.624 C 95.353 397.647 94.967 398.373 95.315 398.932 C 95.345 398.981 95.381 399.027 95.421 399.069 Z" style="fill: rgb(244, 250, 255);"></path>
  <path d="M 416.667 396.237 L 412.163 400.722 C 411.8 401.085 411.216 401.1 410.832 400.76 L 391.638 383.656 C 391.376 383.423 391.26 383.067 391.334 382.725 L 392.797 375.599 C 392.955 374.871 393.841 374.586 394.394 375.085 L 416.629 394.831 C 417.041 395.201 417.06 395.844 416.667 396.237 Z" style="fill: rgb(244, 250, 255);"></path>
  <path d="M 395.249 407.582 L 382.459 393.31 C 382.016 392.816 382.041 392.353 382.535 391.923 L 387.21 387.818 C 387.653 387.438 388.316 387.48 388.693 387.913 L 401.083 401.767 C 401.463 402.197 401.697 402.691 401.786 403.25 C 402.394 407.354 402.223 410.718 399.126 413.816 C 394.584 418.339 390.897 423.223 383.751 420.695 C 382.991 420.429 382.915 420.023 383.523 419.479 L 395.135 409.274 C 395.743 408.742 395.781 408.177 395.249 407.582 Z" style="fill: rgb(244, 250, 255);"></path>
  <path d="M 133.733 400.57 L 115.033 424.211 C 114.83 424.471 114.454 424.513 114.197 424.306 L 108.724 419.84 C 108.475 419.639 108.433 419.276 108.629 419.023 L 125.315 398.023 C 125.455 397.847 125.683 397.765 125.904 397.814 L 133.41 399.639 C 133.823 399.741 133.992 400.234 133.733 400.57 Z" style="fill: rgb(244, 250, 255);"></path>
  <ellipse fill="#421a1f" transform="matrix(-0.106264, 0.994338, -0.994338, -0.106264, 241.885547, 400.169775)" rx="1.653" ry="1.406"></ellipse>
  <path d="M 149.754 441.885 L 142.969 443.5 C 142.821 443.54 142.663 443.519 142.532 443.443 L 121.381 430.501 C 121.103 430.336 121.016 429.975 121.191 429.703 L 135.007 407.164 C 135.113 406.995 135.301 406.893 135.501 406.898 L 143.863 406.898 C 144.302 406.889 144.585 407.358 144.374 407.742 C 144.368 407.752 144.362 407.761 144.357 407.773 L 131.434 428.905 C 131.259 429.177 131.346 429.538 131.624 429.703 L 149.925 440.84 C 150.301 441.066 150.292 441.613 149.906 441.826 C 149.858 441.853 149.807 441.872 149.754 441.885 Z" style="fill: rgb(244, 250, 255);"></path>
  <path d="M 346.579 440.935 L 338.56 423.85 C 338.269 423.229 338.326 422.645 338.731 422.102 L 342.855 416.476 C 343.449 415.665 343.963 415.722 344.394 416.647 L 353.364 436.013 C 355.405 440.433 353.615 445.678 349.297 447.928 C 344.926 450.228 335.443 455.758 330.502 454.96 C 322.615 453.648 319.233 441.467 316.211 434.872 C 315.869 434.112 316.072 433.534 316.819 433.143 L 321.874 430.558 C 322.558 430.203 323.066 430.374 323.394 431.072 L 331.661 448.479 C 331.942 449.068 332.651 449.316 333.239 449.03 L 345.838 443.006 C 346.614 442.637 346.944 441.71 346.579 440.935 Z" style="fill: rgb(244, 250, 255);"></path>
  <path d="M 152.642 447.852 L 163.475 424.211 C 163.572 423.994 163.773 423.842 164.007 423.812 L 172.008 422.729 C 172.528 422.647 172.941 423.162 172.749 423.652 C 172.743 423.668 172.737 423.683 172.73 423.698 L 160.073 451.311 C 159.917 451.659 159.507 451.813 159.161 451.653 L 152.966 448.745 C 152.635 448.582 152.492 448.187 152.642 447.852 Z" style="fill: rgb(244, 250, 255);"></path>
  <path d="M 309.825 431.566 L 318.643 459.654 C 318.824 460.233 318.474 460.845 317.883 460.984 L 311.916 462.371 C 311.384 462.495 310.844 462.189 310.681 461.668 L 303.06 437.039 C 302.95 436.676 303.045 436.284 303.307 436.013 L 308.096 431.148 C 308.649 430.598 309.584 430.825 309.825 431.566 Z" style="fill: rgb(244, 250, 255);"></path>
  <path d="M 194.813 467.274 C 193.292 466.286 192.241 465 191.658 463.417 C 191.481 462.922 191.468 462.421 191.62 461.915 L 193.159 457.202 C 193.412 456.404 193.146 455.878 192.361 455.625 L 178.488 451.14 C 177.952 450.965 177.378 451.265 177.215 451.805 L 175.656 456.993 C 175.463 457.662 174.777 458.063 174.098 457.905 L 168.644 456.651 C 167.745 456.434 167.428 455.883 167.694 454.998 L 172.692 438.331 C 174.066 433.732 178.902 431.113 183.505 432.478 L 198.024 436.773 C 203.068 438.253 205.928 443.574 204.391 448.612 L 198.309 468.396 C 198.133 469.004 197.739 469.224 197.131 469.061 C 196.371 468.857 195.82 468.491 195.478 467.959 C 195.312 467.679 195.092 467.451 194.813 467.274 Z M 196.856 444.144 C 197.025 443.582 196.707 442.987 196.147 442.816 L 182.507 438.673 C 181.947 438.502 181.352 438.82 181.181 439.382 L 179.733 444.146 C 179.562 444.709 179.879 445.304 180.442 445.475 L 194.079 449.618 C 194.642 449.789 195.236 449.471 195.407 448.909 L 196.856 444.144 Z" style="fill: rgb(244, 250, 255);"></path>
  <path d="M 293.862 459.73 L 290.27 440.954 C 290.177 440.41 290.529 439.889 291.068 439.775 L 296.941 438.578 C 297.65 438.426 298.075 438.711 298.214 439.433 L 301.863 457.563 C 301.99 458.145 301.939 458.723 301.711 459.293 C 298.138 468.263 283.999 472.044 276.986 465.336 C 276.289 464.663 276.416 464.239 277.366 464.063 L 292.855 461.193 C 293.545 461.066 293.999 460.406 293.862 459.73 Z" style="fill: rgb(244, 250, 255);"></path>
  <path d="M 217.998 454.485 L 216.762 468.225 C 216.7 468.871 216.344 469.148 215.698 469.061 L 210.073 468.263 C 209.146 468.135 208.488 467.284 208.591 466.343 L 211.194 442.037 C 211.245 441.606 211.485 441.353 211.916 441.277 C 219.1 440.118 229.077 453.762 234.037 458.723 C 234.811 459.494 235.248 459.336 235.348 458.247 L 236.622 444.793 C 236.681 444.131 237.078 443.552 237.667 443.272 L 244.128 440.175 C 245.016 439.743 245.407 440.022 245.307 441.011 L 242.551 468.263 C 242.247 471.214 238.872 472.742 236.477 471.012 C 236.312 470.893 236.156 470.762 236.014 470.619 L 219.328 454.01 C 218.906 453.582 218.18 453.772 218.022 454.35 C 218.009 454.393 218.001 454.439 217.998 454.485 Z" style="fill: rgb(244, 250, 255);"></path>
</svg>