<svg version="1.1" viewBox="0.00 0.00 788.00 788.00" xmlns="http://www.w3.org/2000/svg">
  <defs></defs>
  <path d="
  M 380.33 0.00
  L 408.29 0.00
  C 521.46 4.71 627.85 56.64 699.21 144.54
  Q 782.25 246.81 788.00 380.56
  L 788.00 407.81
  C 783.76 514.62 737.13 616.33 657.35 687.33
  Q 551.59 781.47 407.69 788.00
  L 380.44 788.00
  C 171.83 779.55 8.88 615.69 0.00 407.69
  L 0.00 380.44
  C 8.43 172.29 172.18 8.56 380.33 0.00
  Z
  M 319.65 234.80
  L 302.28 167.21
  Q 302.13 166.60 301.52 166.76
  L 260.34 177.43
  A 0.74 0.74 0.0 0 0 259.81 178.33
  L 277.36 246.54
  Q 277.50 247.09 276.95 247.24
  L 192.74 269.03
  A 0.41 0.41 0.0 0 0 192.45 269.53
  L 203.88 313.84
  A 0.83 0.83 0.0 0 0 204.93 314.43
  Q 214.72 311.47 224.68 308.99
  C 240.26 305.11 252.17 301.48 261.59 314.98
  Q 263.57 317.81 264.79 322.56
  Q 288.37 413.80 311.95 505.06
  C 316.33 522.00 306.33 525.37 291.92 529.19
  Q 281.30 532.01 270.57 534.50
  Q 270.00 534.63 270.05 535.21
  L 274.59 587.25
  A 0.35 0.34 -9.3 0 0 275.02 587.55
  L 359.08 566.09
  Q 359.90 565.88 360.11 566.69
  L 377.88 635.60
  A 0.53 0.53 0.0 0 0 378.52 635.98
  L 420.20 625.19
  A 0.36 0.36 0.0 0 0 420.46 624.75
  L 402.52 554.82
  A 0.33 0.33 0.0 0 1 402.76 554.42
  L 435.54 546.33
  Q 436.01 546.21 436.14 546.69
  L 453.85 615.91
  Q 453.99 616.46 454.54 616.32
  L 495.90 605.62
  Q 496.51 605.46 496.35 604.85
  L 478.56 535.97
  Q 478.37 535.23 479.10 535.06
  C 536.79 521.76 590.01 481.93 579.74 415.74
  C 573.97 378.58 535.07 348.44 499.21 343.37
  A 0.24 0.24 0.0 0 1 499.08 342.96
  Q 530.00 313.46 520.54 273.34
  Q 518.18 263.35 513.56 254.66
  C 490.74 211.81 439.25 208.84 396.74 216.30
  Q 396.01 216.43 395.83 215.71
  L 378.26 147.50
  Q 378.12 146.95 377.57 147.09
  L 336.11 157.82
  Q 335.60 157.96 335.73 158.46
  L 353.09 226.66
  Q 353.21 227.11 352.76 227.22
  L 320.20 235.14
  Q 319.76 235.24 319.65 234.80
  Z" style="fill: rgba(141, 200, 186, 0.35);"></path>
  <path d="
  M 320.20 235.14
  L 352.76 227.22
  Q 353.21 227.11 353.09 226.66
  L 335.73 158.46
  Q 335.60 157.96 336.11 157.82
  L 377.57 147.09
  Q 378.12 146.95 378.26 147.50
  L 395.83 215.71
  Q 396.01 216.43 396.74 216.30
  C 439.25 208.84 490.74 211.81 513.56 254.66
  Q 518.18 263.35 520.54 273.34
  Q 530.00 313.46 499.08 342.96
  A 0.24 0.24 0.0 0 0 499.21 343.37
  C 535.07 348.44 573.97 378.58 579.74 415.74
  C 590.01 481.93 536.79 521.76 479.10 535.06
  Q 478.37 535.23 478.56 535.97
  L 496.35 604.85
  Q 496.51 605.46 495.90 605.62
  L 454.54 616.32
  Q 453.99 616.46 453.85 615.91
  L 436.14 546.69
  Q 436.01 546.21 435.54 546.33
  L 402.76 554.42
  A 0.33 0.33 0.0 0 0 402.52 554.82
  L 420.46 624.75
  A 0.36 0.36 0.0 0 1 420.20 625.19
  L 378.52 635.98
  A 0.53 0.53 0.0 0 1 377.88 635.60
  L 360.11 566.69
  Q 359.90 565.88 359.08 566.09
  L 275.02 587.55
  A 0.35 0.34 -9.3 0 1 274.59 587.25
  L 270.05 535.21
  Q 270.00 534.63 270.57 534.50
  Q 281.30 532.01 291.92 529.19
  C 306.33 525.37 316.33 522.00 311.95 505.06
  Q 288.37 413.80 264.79 322.56
  Q 263.57 317.81 261.59 314.98
  C 252.17 301.48 240.26 305.11 224.68 308.99
  Q 214.72 311.47 204.93 314.43
  A 0.83 0.83 0.0 0 1 203.88 313.84
  L 192.45 269.53
  A 0.41 0.41 0.0 0 1 192.74 269.03
  L 276.95 247.24
  Q 277.50 247.09 277.36 246.54
  L 259.81 178.33
  A 0.74 0.74 0.0 0 1 260.34 177.43
  L 301.52 166.76
  Q 302.13 166.60 302.28 167.21
  L 319.65 234.80
  Q 319.76 235.24 320.20 235.14
  Z
  M 441.77 294.64
  C 422.08 255.33 364.46 274.63 334.11 284.32
  Q 333.57 284.50 333.72 285.04
  L 355.84 367.71
  Q 355.96 368.16 356.42 368.06
  C 387.68 361.81 446.57 352.58 445.17 308.48
  Q 444.93 300.96 441.77 294.64
  Z
  M 494.03 420.36
  C 475.20 377.33 398.70 401.89 366.00 411.46
  Q 365.52 411.60 365.65 412.08
  L 390.05 503.48
  A 0.57 0.56 76.7 0 0 390.70 503.89
  C 420.74 497.92 465.56 490.90 486.44 465.44
  C 496.19 453.56 500.35 434.81 494.03 420.36
  Z" style="fill: rgb(244, 250, 255);"></path>
  <path d="
  M 334.11 284.32
  C 364.46 274.63 422.08 255.33 441.77 294.64
  Q 444.93 300.96 445.17 308.48
  C 446.57 352.58 387.68 361.81 356.42 368.06
  Q 355.96 368.16 355.84 367.71
  L 333.72 285.04
  Q 333.57 284.50 334.11 284.32
  Z" style="fill: rgba(141, 200, 186, 0.35);"></path>
  <path d="
  M 366.00 411.46
  C 398.70 401.89 475.20 377.33 494.03 420.36
  C 500.35 434.81 496.19 453.56 486.44 465.44
  C 465.56 490.90 420.74 497.92 390.70 503.89
  A 0.57 0.56 76.7 0 1 390.05 503.48
  L 365.65 412.08
  Q 365.52 411.60 366.00 411.46
  Z" style="fill: rgba(141, 200, 186, 0.35);"></path>
</svg>