<svg version="1.1" viewBox="0.00 0.00 1200.00 1200.00" xmlns="http://www.w3.org/2000/svg">
  <defs></defs>
  <path d="
  M 592.81 0.00
  L 607.05 0.00
  C 722.53 1.94 833.98 35.25 929.95 98.88
  C 1081.28 199.22 1180.53 362.27 1197.25 543.69
  C 1229.44 893.11 958.51 1194.96 606.93 1200.00
  L 592.18 1200.00
  C 465.86 1197.51 344.80 1157.99 243.72 1082.82
  C 93.53 971.11 4.15 799.33 0.00 611.68
  L 0.00 588.70
  C 6.87 263.53 268.52 5.00 592.81 0.00
  Z
  M 635.39 537.99
  Q 699.66 411.74 763.85 285.33
  C 771.88 269.51 758.19 259.41 743.73 265.93
  Q 740.47 267.40 734.50 272.55
  Q 536.62 443.01 338.67 613.40
  Q 328.47 622.19 324.24 630.99
  C 319.52 640.82 331.49 644.68 338.50 644.69
  Q 451.47 644.74 564.27 644.77
  A 0.45 0.45 0.0 0 1 564.68 645.42
  Q 502.32 768.97 440.07 892.55
  C 437.31 898.04 434.65 905.08 434.06 910.31
  C 432.99 919.75 436.37 928.60 447.61 926.69
  C 456.52 925.17 465.05 918.73 472.46 912.21
  Q 671.17 737.18 869.83 562.08
  Q 875.04 557.49 878.10 550.54
  C 882.11 541.42 869.46 538.49 863.00 538.49
  Q 749.29 538.49 635.71 538.51
  A 0.36 0.36 0.0 0 1 635.39 537.99
  Z" style="fill: rgb(244, 250, 255);"></path>
</svg>