<svg viewBox="-187.211 -229.662 500 500" width="399.3px" height="479px" xmlns="http://www.w3.org/2000/svg">
  <defs></defs>
  <g transform="matrix(0.938869, 0, 0, 0.938869, -309.801208, -388.961975)">
    <path class="st0" d="M396.9,356.1H227.2c-16.6,0-30-13.4-30-30v-99.8c0-16.6,13.4-30,30-30h139.7c16.6,0,30,13.4,30,30V356.1z" style="fill: rgb(244, 250, 255);"></path>
    <path class="st0" d="M566.6,515.8H396.9V356.1h169.7c16.5,0,29.9,13.4,29.9,29.9v99.8C596.5,502.4,583.1,515.8,566.6,515.8z" style="fill: rgb(244, 250, 255);"></path>
    <path class="st0" d="M366.9,675.6H227.2c-16.5,0-29.9-13.4-29.9-29.9v-99.8c0-16.5,13.4-29.9,29.9-29.9h169.7v129.8
		C396.9,662.1,383.5,675.6,366.9,675.6z" style="fill: rgb(244, 250, 255);"></path>
  </g>
</svg>