<svg preserveAspectRatio="xMidYMin" width="32" height="32" viewBox="0 0 24 24" fill="var(--foreground-default)" aria-hidden="true" class="css-1jh5quh" style="vertical-align: middle;" xmlns="http://www.w3.org/2000/svg">
  <defs></defs>
  <path d="M21.8008 7.99963C21.8008 7.99963 21.6055 6.62073 21.0039 6.01526C20.2422 5.21838 19.3906 5.21448 19 5.1676C16.2031 4.96448 12.0039 4.96448 12.0039 4.96448H11.9961C11.9961 4.96448 7.79688 4.96448 5 5.1676C4.60938 5.21448 3.75781 5.21838 2.99609 6.01526C2.39453 6.62073 2.20312 7.99963 2.20312 7.99963C2.20312 7.99963 2 9.62073 2 11.2379V12.7535C2 14.3707 2.19922 15.9918 2.19922 15.9918C2.19922 15.9918 2.39453 17.3707 2.99219 17.9762C3.75391 18.7731 4.75391 18.7457 5.19922 18.8317C6.80078 18.984 12 19.0309 12 19.0309C12 19.0309 16.2031 19.0231 19 18.8239C19.3906 18.777 20.2422 18.7731 21.0039 17.9762C21.6055 17.3707 21.8008 15.9918 21.8008 15.9918C21.8008 15.9918 22 14.3746 22 12.7535V11.2379C22 9.62073 21.8008 7.99963 21.8008 7.99963ZM9.93359 14.5934V8.97229L15.3359 11.7926L9.93359 14.5934Z" style="fill: rgb(244, 250, 255);"></path>
</svg>