<svg viewBox="0 0 150 150" xmlns="http://www.w3.org/2000/svg">
  <defs></defs>
  <rect width="150" height="150" style="fill: rgb(21, 44, 66);"></rect>
  <polygon style="fill: rgb(244, 250, 255);" points="85 60 135 125 135 140 85 75"></polygon>
  <polygon style="fill: rgb(244, 250, 255);" points="20 20 30 10 30 20 20 29.299999237060547"></polygon>
  <polygon style="fill: rgb(244, 250, 255);" points="20 36 30 26.700000762939453 30 43.5 20 51.099998474121094"></polygon>
  <polygon style="fill: rgb(244, 250, 255);" points="20 57.79999923706055 30.034000396728516 50.24300003051758 30 140 20 140"></polygon>
  <path style="fill: rgb(244, 250, 255);" d="M 70 140 L 70 80 L 80 85 L 80 70 L 70 65 L 70 55 L 80 60 L 80 50 L 70 45 L 70 10 L 110 10 L 135 45 L 110 86 L 103.2 77 L 123 45 L 105 20 L 80 20 L 80 35 L 70 30 L 70 35 L 80.3 40 L 80 130 L 70 140 Z"></path>
</svg>