<svg viewBox="0 0 750 150" xmlns="http://www.w3.org/2000/svg">
  <defs></defs>
  <polygon style="fill: rgb(244, 250, 255);" points="85 60 135 125 135 140 85 75"></polygon>
  <polygon style="fill: rgb(244, 250, 255);" points="20 20 30 10 30 20 20 29.299999237060547"></polygon>
  <polygon style="fill: rgb(244, 250, 255);" points="20 36 30 26.700000762939453 30 43.5 20 51.099998474121094"></polygon>
  <polygon style="fill: rgb(244, 250, 255);" points="20 57.79999923706055 30.034000396728516 50.24300003051758 30 140 20 140"></polygon>
  <path style="fill: rgb(244, 250, 255);" d="M 70 140 L 70 80 L 80 85 L 80 70 L 70 65 L 70 55 L 80 60 L 80 50 L 70 45 L 70 10 L 110 10 L 135 45 L 110 86 L 103.2 77 L 123 45 L 105 20 L 80 20 L 80 35 L 70 30 L 70 35 L 80.3 40 L 80 130 L 70 140 Z"></path>
  <path style="fill: rgb(244, 250, 255);" d="M 165 75 L 180 10 L 220 10 L 224.219 28.281 L 217.372 33.004 L 218.482 39.383 L 225.769 34.054 L 229.231 49.409 L 221.344 54.379 L 222.373 61.172 L 230.849 55.632 L 235 75 L 220 140 L 180 140 L 171.64 103.719 L 179.593 99.816 L 178.296 93.287 L 170.225 97.449 L 165 75 L 175 75 L 182.061 114.352 L 174.807 117.878 L 175.935 122.684 L 183.056 119.176 L 185 130 L 215 130 L 225 75 L 215 20 L 185 20 L 175 75 L 165 75 Z"></path>
  <polygon style="fill: rgb(244, 250, 255);" points="265 140 265 10 325 105 325 50 335 40 335 30 325 40 325 30 335 20 335 15 325 25 325 20 335 10 335 140 275 45 275 130"></polygon>
  <polygon style="fill: rgb(244, 250, 255);" points="425 45 435 50 435 24 420 10 415 10 410 20 405 20 410 10 400 10 395 20 390 20 395 10 380 10 365 30 365 120 380 140 395 140 390 130 395 130 399.9580078125 140.04600524902344 410 140 405 130 410 130 415 140 420 140 435 128.60000610351562 435 100 425 105 425 120 415 130 385 130 375 115 375 35 385 20 415 20 425 30"></polygon>
  <polygon style="fill: rgb(244, 250, 255);" points="465 12 465 25 475 35 475 45 465 35 465 50 475 60 475 70 465 60 465 119.69999694824219 480 136.1999969482422 535 136.89999389648438 525 124.80000305175781 485 124.80000305175781 475 114.80000305175781 475 24.799999237060547"></polygon>
  <path style="fill: rgb(244, 250, 255);" d="M 565 140 L 580 10 L 601 10 L 599 20 L 604 20 L 606 10.054 L 620 10 L 635 140 L 625 135 L 619 80 L 581 80 L 582 70 L 591 70 L 588 80 L 593 80 L 596 70 L 618 70 L 612.5 20 L 587.5 20 L 575 135 L 565 140 Z"></path>
  <polygon style="fill: rgb(244, 250, 255);" points="725 75 735 75 735 34 710 10 675 10 665 20 665 35 675 40 675 45 665 40 665 65 675 70 675 80 665 75 665 130 675 140 710 140 735 115 735 75 725 75 725 90 735 95 735 105 725 100 725 110 705 130 680 130 675 126 675 25 680 20 705 20 725 40"></polygon>
</svg>