<svg viewBox="0 0 500 500" xmlns="http://www.w3.org/2000/svg">
  <defs></defs>
  <path style="fill: none; stroke-linecap: round; stroke-linejoin: round; stroke-width: 10px; stroke: rgb(255, 255, 255);" d="M 148.697 112.556 L 247.673 60.548 L 337.641 108.271"></path>
  <path style="fill: none; stroke-linecap: round; stroke-linejoin: round; stroke-width: 10px; stroke: rgb(255, 255, 255);" d="M 114.53 126.873 L 204.143 150.446 L 209.339 126.873 L 247.086 105.937 C 247.086 105.937 285.169 125.774 285.169 126.321 C 285.169 126.873 288.225 150.402 288.225 150.402 L 363.564 124.162"></path>
  <path style="fill: none; stroke-linecap: round; stroke-linejoin: round; stroke-width: 10px; stroke: rgb(255, 255, 255);" d="M 163.397 76.634 L 68.621 135.327 L 219.41 175.702 L 247.131 204.259 L 278.719 176.155 L 414.777 135.77 L 335.709 74.441"></path>
  <path style="fill: none; stroke-linecap: round; stroke-linejoin: round; stroke-width: 10px; stroke: rgb(255, 255, 255);" d="M 93.84 161.088 L 65.07 213.919 L 172.099 266.337 L 208.066 431.181 L 283.605 431.998 L 314.951 265.263 L 428.781 212.4 L 387.97 162.326"></path>
  <path style="fill: none; stroke-linecap: round; stroke-linejoin: round; stroke-width: 10px; stroke: rgb(255, 255, 255);" d="M 137.496 185.495 L 206.614 204.895 L 202.028 239.717 L 132.06 202.274 L 137.496 185.495 Z"></path>
  <path style="fill: none; stroke-linecap: round; stroke-linejoin: round; stroke-width: 10px; stroke: rgb(255, 255, 255);" d="M 287.975 207.782 L 355.472 182.673 L 363.831 198.392 C 363.831 198.392 293.515 242.351 293.263 242.572 C 293.016 242.792 288.993 209.312 287.975 207.782 Z"></path>
  <path style="fill: none; stroke-linecap: round; stroke-linejoin: round; stroke-width: 10px; stroke: rgb(255, 255, 255);" d="M 215.365 323.207 L 205.742 282.114 L 284.715 282.076 L 273.771 324.08"></path>
  <path style="stroke-linecap: round; stroke-linejoin: round; stroke-width: 10px; stroke: rgb(255, 255, 255); fill: rgb(255, 255, 255);" d="M 182.437 396.697 L 130.755 366.725 L 116.027 286.358 L 131.126 261.832 L 116.31 286.37 L 118.971 305.035 L 164.113 326.8 L 182.437 396.697 Z"></path>
  <path style="stroke-linecap: round; stroke-linejoin: round; stroke-width: 10px; stroke: rgb(255, 255, 255); fill: rgb(255, 255, 255);" d="M 363.804 256.016 L 382.042 282.093 C 382.042 282.093 359.373 367.943 359.123 368.169 C 358.874 368.386 307.554 397.342 307.554 397.342 L 322.72 328.622 C 322.72 328.622 375.889 305.475 376.138 305.695 C 376.387 305.913 381.901 281.266 381.654 281.709 C 381.402 282.151 365.145 257.193 363.804 256.016 Z"></path>
  <path style="fill: rgb(216, 216, 216); stroke-linecap: round; stroke-linejoin: round; stroke-width: 10px; stroke: rgb(255, 255, 255);" d="M 245.762 413.106 L 245.577 346.267"></path>
  <path style="fill: rgb(216, 216, 216); stroke-linecap: round; stroke-linejoin: round; stroke-width: 10px; stroke: rgb(255, 255, 255);" d="M 219.661 361.26 L 220.753 396.607"></path>
  <path style="fill: rgb(216, 216, 216); stroke-linecap: round; stroke-linejoin: round; stroke-width: 10px; stroke: rgb(255, 255, 255);" d="M 271.827 360.301 L 270.976 397.133"></path>
</svg>