<svg viewBox="0 0 500 500" xmlns="http://www.w3.org/2000/svg" xmlns:bx="https://boxy-svg.com">
  <defs>
    <filter id="gaussian-blur-filter-1" color-interpolation-filters="sRGB" x="-500%" y="-500%" width="1000%" height="1000%" bx:preset="gaussian-blur 1 5">
      <feGaussianBlur stdDeviation="5 5" edgeMode="none"></feGaussianBlur>
    </filter>
  </defs>
  <path style="fill: none; stroke-linecap: round; stroke-linejoin: round; stroke: rgb(128, 144, 160); stroke-width: 12px; filter: url(#gaussian-blur-filter-1);" d="M 148.679 112.713 L 247.655 60.705 L 337.623 108.428"></path>
  <path style="fill: none; stroke-linecap: round; stroke-linejoin: round; stroke: rgb(128, 144, 160); stroke-width: 12px; filter: url(#gaussian-blur-filter-1);" d="M 114.512 127.03 L 204.125 150.603 L 209.321 127.03 L 247.068 106.094 C 247.068 106.094 285.151 125.931 285.151 126.478 C 285.151 127.03 288.207 150.559 288.207 150.559 L 363.546 124.319"></path>
  <path style="fill: none; stroke-linecap: round; stroke-linejoin: round; stroke: rgb(128, 144, 160); stroke-width: 12px; filter: url(#gaussian-blur-filter-1);" d="M 163.379 76.791 L 68.603 135.484 L 219.392 175.859 L 247.113 204.416 L 278.701 176.312 L 414.759 135.927 L 335.691 74.598"></path>
  <path style="fill: none; stroke-linecap: round; stroke-linejoin: round; stroke: rgb(128, 144, 160); stroke-width: 12px; filter: url(#gaussian-blur-filter-1);" d="M 93.822 161.245 L 65.052 214.076 L 172.081 266.494 L 208.048 431.338 L 283.587 432.155 L 314.933 265.42 L 428.763 212.557 L 387.952 162.483"></path>
  <path style="fill: none; stroke-linecap: round; stroke-linejoin: round; stroke: rgb(128, 144, 160); stroke-width: 12px; filter: url(#gaussian-blur-filter-1);" d="M 137.478 185.652 L 206.596 205.052 L 202.01 239.874 L 132.042 202.431 L 137.478 185.652 Z"></path>
  <path style="fill: none; stroke-linecap: round; stroke-linejoin: round; stroke: rgb(128, 144, 160); stroke-width: 12px; filter: url(#gaussian-blur-filter-1);" d="M 287.957 207.939 L 355.454 182.83 L 363.813 198.549 C 363.813 198.549 293.497 242.508 293.245 242.729 C 292.998 242.949 288.975 209.469 287.957 207.939 Z"></path>
  <path style="fill: none; stroke-linecap: round; stroke-linejoin: round; stroke: rgb(128, 144, 160); stroke-width: 12px; filter: url(#gaussian-blur-filter-1);" d="M 215.347 323.364 L 205.724 282.271 L 284.697 282.233 L 273.753 324.237"></path>
  <path style="stroke-linecap: round; stroke-linejoin: round; fill: rgb(255, 255, 255); stroke: rgb(128, 144, 160); stroke-width: 12px; filter: url(#gaussian-blur-filter-1);" d="M 182.419 396.854 L 130.737 366.882 L 116.009 286.515 L 131.108 261.989 L 116.292 286.527 L 118.953 305.192 L 164.095 326.957 L 182.419 396.854 Z"></path>
  <path style="stroke-linecap: round; stroke-linejoin: round; fill: rgb(255, 255, 255); stroke: rgb(128, 144, 160); stroke-width: 12px; filter: url(#gaussian-blur-filter-1);" d="M 363.786 256.173 L 382.024 282.25 C 382.024 282.25 359.355 368.1 359.105 368.326 C 358.856 368.543 307.536 397.499 307.536 397.499 L 322.702 328.779 C 322.702 328.779 375.871 305.632 376.12 305.852 C 376.369 306.07 381.883 281.423 381.636 281.866 C 381.384 282.308 365.127 257.35 363.786 256.173 Z"></path>
  <path style="fill: rgb(216, 216, 216); stroke-linecap: round; stroke-linejoin: round; stroke: rgb(128, 144, 160); stroke-width: 12px; filter: url(#gaussian-blur-filter-1);" d="M 245.744 413.263 L 245.559 346.424"></path>
  <path style="fill: rgb(216, 216, 216); stroke-linecap: round; stroke-linejoin: round; stroke: rgb(128, 144, 160); stroke-width: 12px; filter: url(#gaussian-blur-filter-1);" d="M 219.643 361.417 L 220.735 396.764"></path>
  <path style="fill: rgb(216, 216, 216); stroke-linecap: round; stroke-linejoin: round; stroke: rgb(128, 144, 160); stroke-width: 12px; filter: url(#gaussian-blur-filter-1);" d="M 271.809 360.458 L 270.958 397.29"></path>
  <path style="fill: none; stroke-linecap: round; stroke-linejoin: round; stroke-width: 8px; stroke: rgb(244, 250, 255);" d="M 148.697 112.556 L 247.673 60.548 L 337.641 108.271"></path>
  <path style="fill: none; stroke-linecap: round; stroke-linejoin: round; stroke-width: 8px; stroke: rgb(244, 250, 255);" d="M 114.53 126.873 L 204.143 150.446 L 209.339 126.873 L 247.086 105.937 C 247.086 105.937 285.169 125.774 285.169 126.321 C 285.169 126.873 288.225 150.402 288.225 150.402 L 363.564 124.162"></path>
  <path style="fill: none; stroke-linecap: round; stroke-linejoin: round; stroke-width: 8px; stroke: rgb(244, 250, 255);" d="M 163.397 76.634 L 68.621 135.327 L 219.41 175.702 L 247.131 204.259 L 278.719 176.155 L 414.777 135.77 L 335.709 74.441"></path>
  <path style="fill: none; stroke-linecap: round; stroke-linejoin: round; stroke-width: 8px; stroke: rgb(244, 250, 255);" d="M 93.84 161.088 L 65.07 213.919 L 172.099 266.337 L 208.066 431.181 L 283.605 431.998 L 314.951 265.263 L 428.781 212.4 L 387.97 162.326"></path>
  <path style="fill: none; stroke-linecap: round; stroke-linejoin: round; stroke-width: 8px; stroke: rgb(244, 250, 255);" d="M 137.496 185.495 L 206.614 204.895 L 202.028 239.717 L 132.06 202.274 L 137.496 185.495 Z"></path>
  <path style="fill: none; stroke-linecap: round; stroke-linejoin: round; stroke-width: 8px; stroke: rgb(244, 250, 255);" d="M 287.975 207.782 L 355.472 182.673 L 363.831 198.392 C 363.831 198.392 293.515 242.351 293.263 242.572 C 293.016 242.792 288.993 209.312 287.975 207.782 Z"></path>
  <path style="fill: none; stroke-linecap: round; stroke-linejoin: round; stroke-width: 8px; stroke: rgb(244, 250, 255);" d="M 215.365 323.207 L 205.742 282.114 L 284.715 282.076 L 273.771 324.08"></path>
  <path style="stroke-linecap: round; stroke-linejoin: round; fill: rgb(255, 255, 255); stroke-width: 8px; stroke: rgb(244, 250, 255);" d="M 182.437 396.697 L 130.755 366.725 L 116.027 286.358 L 131.126 261.832 L 116.31 286.37 L 118.971 305.035 L 164.113 326.8 L 182.437 396.697 Z"></path>
  <path style="stroke-linecap: round; stroke-linejoin: round; fill: rgb(255, 255, 255); stroke-width: 8px; stroke: rgb(244, 250, 255);" d="M 363.804 256.016 L 382.042 282.093 C 382.042 282.093 359.373 367.943 359.123 368.169 C 358.874 368.386 307.554 397.342 307.554 397.342 L 322.72 328.622 C 322.72 328.622 375.889 305.475 376.138 305.695 C 376.387 305.913 381.901 281.266 381.654 281.709 C 381.402 282.151 365.145 257.193 363.804 256.016 Z"></path>
  <path style="fill: rgb(216, 216, 216); stroke-linecap: round; stroke-linejoin: round; stroke-width: 8px; stroke: rgb(244, 250, 255);" d="M 245.762 413.106 L 245.577 346.267"></path>
  <path style="fill: rgb(216, 216, 216); stroke-linecap: round; stroke-linejoin: round; stroke-width: 8px; stroke: rgb(244, 250, 255);" d="M 219.661 361.26 L 220.753 396.607"></path>
  <path style="fill: rgb(216, 216, 216); stroke-linecap: round; stroke-linejoin: round; stroke-width: 8px; stroke: rgb(244, 250, 255);" d="M 271.827 360.301 L 270.976 397.133"></path>
</svg>