<svg width="100" height="100" viewBox="0 0 100 100" fill="none" xmlns="http://www.w3.org/2000/svg">
<path d="M24 57L26 53L30 61L28 65L24 57Z" fill="#242336"/>
<path d="M18 81L20.5 76L24.5 84L22 89L18 81Z" fill="#242336"/>
<path d="M10.5 100L18.5 84L26.5 100H10.5Z" fill="#242336"/>
<path d="M20 73L22.5 68L26.5 76L24 81L20 73Z" fill="#242336"/>
<path d="M22 65L24.5 60L28.5 68L26 73L22 65Z" fill="#242336"/>
<path d="M57.5 86H52L55.5 93L60 90.5L57.5 86Z" fill="#242336"/>
<path d="M56 94V100H65.5L61 91L56 94Z" fill="#1F1D2D"/>
<path d="M40 69.5H35L25 87L31.5 100H38.5L34.5 92L40 81L37 75L40 69.5Z" fill="#1F1D2D"/>
<path d="M51 86H46L52 100H55V94L51 86Z" fill="#242336"/>
<path d="M56.5 81L58.5 85H43L38.5 75L41 70L46.5 81H56.5Z" fill="#1F1D2D"/>
</svg>
