<svg xmlns="http://www.w3.org/2000/svg" xmlns:xlink="http://www.w3.org/1999/xlink" width="544.16998" height="544.8642" version="1.1">
  <g id="layer1" transform="translate(-69.980994,-160.33288)">
    <g id="g3699" transform="matrix(1.532388,0,0,1.3939671,-54.912136,-41.792396)">
      <path transform="matrix(0.90138601,0,0,0.99222542,-437.42287,-185.30615)" d="m 828.9375,369.5 -4.28125,4.28125 0,15.71875 3.75,3.75 19.8125,0 0,15.1875 -131.0625,132.84375 0,-147.84375 21.78125,0 4.46875,-4.46875 0,-15.90625 -4.125,-3.1875 -114.625,0 -3.75,3.75 0,16.25 3.8125,3.8125 19.9375,0 0,272.25 3.75,3.75 22.65625,0 274.65625,-283.40625 0,-12.5 -4.28125,-4.28125 -112.5,0 z" id="path3622" style="fill: #c8d5f1; fill-opacity: 1; stroke-width: 1px; stroke-linecap: butt; stroke-linejoin: miter; stroke-opacity: 1;"></path>
    </g>
  </g>
</svg>
